<svg width="176" height="57" viewBox="0 0 176 57" fill="none" xmlns="http://www.w3.org/2000/svg">
<mask id="path-1-inside-1_59_1002" fill="white">
<path d="M3.18083 1.06321C3.18083 0.476014 3.65684 0 4.24403 0H88.0001H171.756C172.343 0 172.819 0.476014 172.819 1.06321V23.2317C172.819 23.4353 172.878 23.6346 172.988 23.8059L175.632 27.9258C175.856 28.2757 175.856 28.7243 175.632 29.0742L172.988 33.1941C172.878 33.3654 172.819 33.5647 172.819 33.7683V55.9368C172.819 56.524 172.343 57 171.756 57H88.0001H4.24403C3.65684 57 3.18083 56.524 3.18083 55.9368V33.7683C3.18083 33.5647 3.12238 33.3654 3.01243 33.1941L0.368595 29.0742C0.144062 28.7243 0.144062 28.2757 0.368595 27.9258L3.01243 23.8059C3.12238 23.6346 3.18083 23.4353 3.18083 23.2317V1.06321Z"/>
</mask>
<g filter="url(#filter0_i_59_1002)">
<path d="M3.18083 1.06321C3.18083 0.476014 3.65684 0 4.24403 0H88.0001H171.756C172.343 0 172.819 0.476014 172.819 1.06321V23.2317C172.819 23.4353 172.878 23.6346 172.988 23.8059L175.632 27.9258C175.856 28.2757 175.856 28.7243 175.632 29.0742L172.988 33.1941C172.878 33.3654 172.819 33.5647 172.819 33.7683V55.9368C172.819 56.524 172.343 57 171.756 57H88.0001H4.24403C3.65684 57 3.18083 56.524 3.18083 55.9368V33.7683C3.18083 33.5647 3.12238 33.3654 3.01243 33.1941L0.368595 29.0742C0.144062 28.7243 0.144062 28.2757 0.368595 27.9258L3.01243 23.8059C3.12238 23.6346 3.18083 23.4353 3.18083 23.2317V1.06321Z" fill="#1E2328"/>
</g>
<path d="M3.01243 33.1941L3.4411 32.919L3.01243 33.1941ZM172.988 23.8059L172.559 24.081L172.988 23.8059ZM172.988 33.1941L172.559 32.919L172.988 33.1941ZM175.632 29.0742L176.06 29.3493L175.632 29.0742ZM175.632 27.9258L176.06 27.6507L175.632 27.9258ZM0.368595 29.0742L-0.0600823 29.3493L0.368595 29.0742ZM0.368595 27.9258L-0.0600818 27.6507L0.368595 27.9258ZM3.01243 23.8059L3.4411 24.081L3.01243 23.8059ZM4.24403 0.509352H88.0001V-0.509352H4.24403V0.509352ZM88.0001 0.509352H171.756V-0.509352H88.0001V0.509352ZM171.756 56.4906H88.0001V57.5093H171.756V56.4906ZM88.0001 56.4906H4.24403V57.5093H88.0001V56.4906ZM175.203 28.7991L172.559 32.919L173.416 33.4692L176.06 29.3493L175.203 28.7991ZM172.31 33.7683V55.9368H173.329V33.7683H172.31ZM172.31 1.06321V23.2317H173.329V1.06321H172.31ZM172.559 24.081L175.203 28.2009L176.06 27.6507L173.416 23.5308L172.559 24.081ZM3.69018 55.9368V33.7683H2.67147V55.9368H3.69018ZM3.4411 32.919L0.797271 28.7991L-0.0600823 29.3493L2.58375 33.4692L3.4411 32.919ZM0.797272 28.2009L3.4411 24.081L2.58375 23.5308L-0.0600818 27.6507L0.797272 28.2009ZM3.69018 23.2317V1.06321H2.67147V23.2317H3.69018ZM3.69018 33.7683C3.69018 33.4672 3.60373 33.1724 3.4411 32.919L2.58375 33.4692C2.64103 33.5584 2.67147 33.6623 2.67147 33.7683H3.69018ZM172.31 23.2317C172.31 23.5328 172.396 23.8276 172.559 24.081L173.416 23.5308C173.359 23.4415 173.329 23.3377 173.329 23.2317H172.31ZM172.559 32.919C172.396 33.1724 172.31 33.4672 172.31 33.7683H173.329C173.329 33.6623 173.359 33.5584 173.416 33.4692L172.559 32.919ZM176.06 29.3493C176.392 28.8318 176.392 28.1682 176.06 27.6507L175.203 28.2009C175.32 28.3831 175.32 28.6169 175.203 28.7991L176.06 29.3493ZM4.24403 56.4906C3.93815 56.4906 3.69018 56.2427 3.69018 55.9368H2.67147C2.67147 56.8053 3.37554 57.5093 4.24403 57.5093V56.4906ZM171.756 57.5093C172.625 57.5093 173.329 56.8053 173.329 55.9368H172.31C172.31 56.2427 172.062 56.4906 171.756 56.4906V57.5093ZM0.797271 28.7991C0.680306 28.6169 0.680306 28.3831 0.797272 28.2009L-0.0600818 27.6507C-0.392181 28.1682 -0.392183 28.8318 -0.0600823 29.3493L0.797271 28.7991ZM171.756 0.509352C172.062 0.509352 172.31 0.757322 172.31 1.06321H173.329C173.329 0.194705 172.625 -0.509352 171.756 -0.509352V0.509352ZM3.4411 24.081C3.60373 23.8276 3.69018 23.5328 3.69018 23.2317H2.67147C2.67147 23.3377 2.64103 23.4415 2.58375 23.5308L3.4411 24.081ZM4.24403 -0.509352C3.37553 -0.509352 2.67147 0.194706 2.67147 1.06321H3.69018C3.69018 0.757321 3.93815 0.509352 4.24403 0.509352V-0.509352Z" fill="url(#paint0_linear_59_1002)" mask="url(#path-1-inside-1_59_1002)"/>
<defs>
<filter id="filter0_i_59_1002" x="0.200195" y="0" width="175.6" height="57" filterUnits="userSpaceOnUse" color-interpolation-filters="sRGB">
<feFlood flood-opacity="0" result="BackgroundImageFix"/>
<feBlend mode="normal" in="SourceGraphic" in2="BackgroundImageFix" result="shape"/>
<feColorMatrix in="SourceAlpha" type="matrix" values="0 0 0 0 0 0 0 0 0 0 0 0 0 0 0 0 0 0 127 0" result="hardAlpha"/>
<feOffset/>
<feGaussianBlur stdDeviation="5.31603"/>
<feComposite in2="hardAlpha" operator="arithmetic" k2="-1" k3="1"/>
<feColorMatrix type="matrix" values="0 0 0 0 0 0 0 0 0 0 0 0 0 0 0 0 0 0 1 0"/>
<feBlend mode="normal" in2="shape" result="effect1_innerShadow_59_1002"/>
</filter>
<linearGradient id="paint0_linear_59_1002" x1="88.0001" y1="53.8512" x2="88.0001" y2="-0.0179114" gradientUnits="userSpaceOnUse">
<stop stop-color="#7B5E2A"/>
<stop offset="1" stop-color="#C7A86C"/>
</linearGradient>
</defs>
</svg>
