<svg width="286" height="306" viewBox="0 0 286 306" fill="none" xmlns="http://www.w3.org/2000/svg">
<g filter="url(#filter0_d_274_196)">
<path d="M3 17.2426C3 16.447 3.31607 15.6839 3.87868 15.1213L15.1213 3.87868C15.6839 3.31607 16.447 3 17.2426 3H268.757C269.553 3 270.316 3.31607 270.879 3.87868L282.121 15.1213C282.684 15.6839 283 16.447 283 17.2426V289.686C283 290.524 282.65 291.323 282.035 291.891L270.862 302.204C270.308 302.716 269.581 303 268.827 303H17.173C16.4188 303 15.6923 302.716 15.1381 302.204L3.96516 291.891C3.34991 291.323 3 290.524 3 289.686V17.2426Z" fill="#010913"/>
<path d="M3 17.2426C3 16.447 3.31607 15.6839 3.87868 15.1213L15.1213 3.87868C15.6839 3.31607 16.447 3 17.2426 3H268.757C269.553 3 270.316 3.31607 270.879 3.87868L282.121 15.1213C282.684 15.6839 283 16.447 283 17.2426V289.686C283 290.524 282.65 291.323 282.035 291.891L270.862 302.204C270.308 302.716 269.581 303 268.827 303H17.173C16.4188 303 15.6923 302.716 15.1381 302.204L3.96516 291.891C3.34991 291.323 3 290.524 3 289.686V17.2426Z" stroke="#463714"/>
</g>
<defs>
<filter id="filter0_d_274_196" x="0.5" y="0.5" width="285" height="305" filterUnits="userSpaceOnUse" color-interpolation-filters="sRGB">
<feFlood flood-opacity="0" result="BackgroundImageFix"/>
<feColorMatrix in="SourceAlpha" type="matrix" values="0 0 0 0 0 0 0 0 0 0 0 0 0 0 0 0 0 0 127 0" result="hardAlpha"/>
<feOffset/>
<feGaussianBlur stdDeviation="1"/>
<feComposite in2="hardAlpha" operator="out"/>
<feColorMatrix type="matrix" values="0 0 0 0 0 0 0 0 0 0 0 0 0 0 0 0 0 0 0.9 0"/>
<feBlend mode="normal" in2="BackgroundImageFix" result="effect1_dropShadow_274_196"/>
<feBlend mode="normal" in="SourceGraphic" in2="effect1_dropShadow_274_196" result="shape"/>
</filter>
</defs>
</svg>
