<svg width="170" height="53" viewBox="0 0 170 53" fill="none" xmlns="http://www.w3.org/2000/svg">
<mask id="path-1-outside-1_59_1010" maskUnits="userSpaceOnUse" x="0.231445" y="0.5" width="170" height="52" fill="black">
<rect fill="white" x="0.231445" y="0.5" width="170" height="52"/>
<path d="M4.99994 3.5C4.99994 2.94771 5.44766 2.5 5.99994 2.5H84.9999H164C164.552 2.5 165 2.94772 165 3.5V22.004C165 22.2134 165.066 22.4176 165.188 22.5876L167.58 25.9164C167.831 26.2651 167.831 26.7349 167.58 27.0836L165.188 30.4124C165.066 30.5824 165 30.7866 165 30.996V49.5C165 50.0523 164.552 50.5 164 50.5H84.9999H5.99994C5.44766 50.5 4.99994 50.0523 4.99994 49.5V30.996C4.99994 30.7866 4.93419 30.5824 4.81196 30.4124L2.41943 27.0836C2.16878 26.7349 2.16878 26.2651 2.41943 25.9164L4.81196 22.5876C4.93419 22.4176 4.99994 22.2134 4.99994 22.004V3.5Z"/>
</mask>
<g filter="url(#filter0_i_59_1010)">
<path d="M4.99994 3.5C4.99994 2.94771 5.44766 2.5 5.99994 2.5H84.9999H164C164.552 2.5 165 2.94772 165 3.5V22.004C165 22.2134 165.066 22.4176 165.188 22.5876L167.58 25.9164C167.831 26.2651 167.831 26.7349 167.58 27.0836L165.188 30.4124C165.066 30.5824 165 30.7866 165 30.996V49.5C165 50.0523 164.552 50.5 164 50.5H84.9999H5.99994C5.44766 50.5 4.99994 50.0523 4.99994 49.5V30.996C4.99994 30.7866 4.93419 30.5824 4.81196 30.4124L2.41943 27.0836C2.16878 26.7349 2.16878 26.2651 2.41943 25.9164L4.81196 22.5876C4.93419 22.4176 4.99994 22.2134 4.99994 22.004V3.5Z" fill="#1E2328"/>
</g>
<path d="M4.81196 30.4124L3.18793 31.5796L4.81196 30.4124ZM165.188 22.5876L163.564 23.7549L165.188 22.5876ZM165.188 30.4124L163.564 29.2451L165.188 30.4124ZM167.58 27.0836L169.204 28.2509L167.58 27.0836ZM167.58 25.9164L169.204 24.7491L167.58 25.9164ZM4.81196 22.5876L3.18793 21.4204L4.81196 22.5876ZM5.99994 4.5H84.9999V0.5H5.99994V4.5ZM84.9999 4.5H164V0.5H84.9999V4.5ZM164 48.5H84.9999V52.5H164V48.5ZM84.9999 48.5H5.99994V52.5H84.9999V48.5ZM165.956 25.9164L163.564 29.2451L166.812 31.5796L169.204 28.2509L165.956 25.9164ZM163 30.996V49.5H167V30.996H163ZM163 3.5V22.004H167V3.5H163ZM163.564 23.7549L165.956 27.0836L169.204 24.7491L166.812 21.4204L163.564 23.7549ZM6.99994 49.5V30.996H2.99994V49.5H6.99994ZM6.43599 29.2451L4.04346 25.9164L0.795399 28.2509L3.18793 31.5796L6.43599 29.2451ZM4.04346 27.0836L6.43599 23.7549L3.18793 21.4204L0.795399 24.7491L4.04346 27.0836ZM6.99994 22.004V3.5H2.99994V22.004H6.99994ZM6.99994 30.996C6.99994 30.3677 6.80268 29.7553 6.43599 29.2451L3.18793 31.5796C3.0657 31.4096 2.99994 31.2054 2.99994 30.996H6.99994ZM163 22.004C163 22.6323 163.197 23.2447 163.564 23.7549L166.812 21.4204C166.934 21.5904 167 21.7946 167 22.004H163ZM163.564 29.2451C163.197 29.7553 163 30.3677 163 30.996H167C167 31.2054 166.934 31.4096 166.812 31.5796L163.564 29.2451ZM169.204 28.2509C169.956 27.2047 169.956 25.7953 169.204 24.7491L165.956 27.0836C165.706 26.7349 165.706 26.2651 165.956 25.9164L169.204 28.2509ZM5.99994 48.5C6.55223 48.5 6.99994 48.9477 6.99994 49.5H2.99994C2.99994 51.1569 4.34308 52.5 5.99994 52.5V48.5ZM164 52.5C165.657 52.5 167 51.1569 167 49.5H163C163 48.9477 163.448 48.5 164 48.5V52.5ZM4.04346 25.9164C4.29411 26.2651 4.29411 26.7349 4.04346 27.0836L0.795399 24.7491C0.0434592 25.7953 0.043462 27.2047 0.795399 28.2509L4.04346 25.9164ZM164 4.5C163.448 4.5 163 4.05228 163 3.5H167C167 1.84315 165.657 0.5 164 0.5V4.5ZM6.43599 23.7549C6.80268 23.2447 6.99994 22.6323 6.99994 22.004H2.99994C2.99994 21.7946 3.06569 21.5904 3.18793 21.4204L6.43599 23.7549ZM5.99994 0.5C4.34309 0.5 2.99994 1.84314 2.99994 3.5H6.99994C6.99994 4.05229 6.55222 4.5 5.99994 4.5V0.5Z" fill="url(#paint0_linear_59_1010)" mask="url(#path-1-outside-1_59_1010)"/>
<defs>
<filter id="filter0_i_59_1010" x="0.231445" y="0.5" width="169.537" height="52" filterUnits="userSpaceOnUse" color-interpolation-filters="sRGB">
<feFlood flood-opacity="0" result="BackgroundImageFix"/>
<feBlend mode="normal" in="SourceGraphic" in2="BackgroundImageFix" result="shape"/>
<feColorMatrix in="SourceAlpha" type="matrix" values="0 0 0 0 0 0 0 0 0 0 0 0 0 0 0 0 0 0 127 0" result="hardAlpha"/>
<feOffset/>
<feGaussianBlur stdDeviation="5"/>
<feComposite in2="hardAlpha" operator="arithmetic" k2="-1" k3="1"/>
<feColorMatrix type="matrix" values="0 0 0 0 0 0 0 0 0 0 0 0 0 0 0 0 0 0 1 0"/>
<feBlend mode="normal" in2="shape" result="effect1_innerShadow_59_1010"/>
</filter>
<linearGradient id="paint0_linear_59_1010" x1="84.9999" y1="50.5" x2="84.9999" y2="2.5" gradientUnits="userSpaceOnUse">
<stop stop-color="#7B5E2A"/>
<stop offset="1" stop-color="#C7A86C"/>
</linearGradient>
</defs>
</svg>
